<svg class="svg-icon" style="width: 1em; height: 1em;vertical-align: middle;fill: currentColor;overflow: hidden;" viewBox="0 0 1024 1024" version="1.1" xmlns="http://www.w3.org/2000/svg"><path d="M875.633778 241.777778H661.347556v-96.497778C661.347556 93.240889 623.630222 56.888889 566.983111 56.888889h-115.740444C392.746667 56.888889 362.666667 94.051556 362.666667 145.265778V241.777778H148.366222A98.602667 98.602667 0 0 0 49.777778 340.366222v528.156445a98.616889 98.616889 0 0 0 98.588444 98.602666h727.267556a98.602667 98.602667 0 0 0 98.588444-98.602666h0.014222V340.366222A98.602667 98.602667 0 0 0 875.633778 241.777778zM419.555556 145.28C419.555556 114.673778 446.72 113.777778 451.228444 113.777778h101.489778c17.962667 0 51.726222 5.461333 51.726222 31.488V241.777778h-184.888888v-96.497778zM875.633778 910.222222H148.366222A41.699556 41.699556 0 0 1 106.666667 868.522667V611.555556h44.515555a14.222222 14.222222 0 1 0 0-28.444445H106.666667V340.366222A41.699556 41.699556 0 0 1 148.366222 298.666667h727.267556a41.699556 41.699556 0 0 1 41.699555 41.699555h0.014223V583.111111H604.430222v-13.226667a57.870222 57.870222 0 0 0-57.870222-57.870222h-69.12a57.870222 57.870222 0 0 0-57.884444 57.870222V583.111111H236.529778a14.222222 14.222222 0 1 0 0 28.444445H419.555556v27.448888A57.884444 57.884444 0 0 0 477.44 696.888889h69.12a57.884444 57.884444 0 0 0 57.884444-57.884445h-0.014222V611.555556h312.917334v256.967111A41.699556 41.699556 0 0 1 875.633778 910.222222zM576 569.884444l-0.014222 69.105778a29.44 29.44 0 0 1-29.425778 29.44h-69.12a29.44 29.44 0 0 1-29.44-29.44V569.884444c0-16.256 13.169778-29.425778 29.44-29.425777h69.12c16.256 0 29.44 13.155556 29.44 29.425777z" fill="" /></svg>